<?xml version="1.0" encoding="UTF-8"?>
<svg width="300px" height="136px" viewBox="0 0 300 136" version="1.1" xmlns="http://www.w3.org/2000/svg" xmlns:xlink="http://www.w3.org/1999/xlink">
    <!-- Generator: Sketch 54.1 (76490) - https://sketchapp.com -->
    <title>logo</title>
    <desc>Created with Sketch.</desc>
    <g id="Page-1" stroke="none" stroke-width="1" fill="none" fill-rule="evenodd">
        <g id="Mobile" transform="translate(-9.000000, -12.000000)" stroke="#D4C729">
            <g id="logo" transform="translate(9.000000, 12.000000)">
                <path d="M22.5,22.5148977 L53.3855983,22.5169245 C56.3731848,22.7889371 58.8048312,23.5518185 60.6753808,24.8138985 C62.5273034,26.0634107 63.7731577,27.2322542 64.4131886,28.3412968 C65.0431345,29.4328641 65.4682854,30.7944298 65.6938258,32.4247241 C65.9222689,34.0759997 65.7243112,35.8008562 65.1044089,37.5944141 C64.4795226,39.402392 63.4161739,40.9351514 61.9206024,42.1850134 C60.4666721,43.4000755 57.8733927,44.3916778 54.123614,45.1877011 L54.123614,46.9869702 L57.6297733,51.2905405 L77.8349711,51.2905405 L77.8349711,50.5878378 L58.1400867,50.5878378 L54.4502685,45.8658856 L55.2077487,45.6852583 C58.3171751,44.9437905 60.69026,43.9304683 62.3269459,42.6555506 C63.9486692,41.3922881 65.0903647,39.7626677 65.7583639,37.7556162 C66.4326258,35.7297482 66.6225866,33.8725429 66.3348852,32.1797215 C66.0421957,30.45755 65.551376,29.0101563 64.8659005,27.8358458 C64.1923896,26.682032 62.8939427,25.4543576 60.9681402,24.1685328 C59.0605447,22.8948645 56.5040692,22.1056461 53.3402621,21.8121622 L22.5,21.8121622 L22.5,22.5148977 Z M41.2877688,31.3189189 L41.2877688,39.3148649 L52.2635245,39.3148649 C52.7550261,39.3148649 53.3167828,39.104391 53.947638,38.6663315 C54.4896203,38.2899846 54.8391122,37.2019565 54.909973,35.4514283 C54.7865731,33.7035407 54.3946603,32.590007 53.7908544,32.1015744 C53.1347923,31.5708706 52.6076967,31.3189189 52.2351893,31.3189189 L41.2877688,31.3189189 Z M42.0445511,38.7540541 L42.0445511,31.9648649 L51.2717925,31.9648649 C51.7683375,31.9648649 52.3308316,32.193552 52.9819306,32.6318428 C53.7072151,33.120072 54.1015329,34.0378407 54.2084042,35.402515 C54.1659891,36.8468245 53.8105166,37.8018467 53.0604205,38.2220314 C52.4337987,38.5730488 51.847796,38.7540541 51.3001277,38.7540541 L42.0445511,38.7540541 Z M27.2051747,61.0878378 L27.2051747,61.7905405 L40.9961487,61.7905405 L40.9961487,47.5513514 L40.2960368,47.5513514 L40.2960368,61.0878378 L27.2051747,61.0878378 Z M41.0357708,47.5513514 L54.6869779,61.7905405 L77.8349711,61.7905405 L77.8349711,61.0878378 L55.2514478,61.0878378 L42.3305969,47.5513514 L41.0357708,47.5513514 Z M27.9052867,32.3121622 L27.2051747,32.3121622 L27.2051747,60.7152301 L27.9052867,60.7152301 L27.9052867,32.3121622 Z M78.0437536,22.5148649 L112.179401,22.5148649 L112.179401,21.8121622 L78.0437536,21.8121622 L78.0437536,22.5148649 Z M78.7438655,51.2905405 L78.7438655,22.8874726 L78.0437536,22.8874726 L78.0437536,51.2905405 L78.7438655,51.2905405 Z M112.179401,32.3121622 L89.6611853,32.3121622 L89.6611853,39.4283784 L103.715444,39.4283784 L103.715444,44.2310811 L89.6611853,44.2310811 L89.6611853,51.2905405 L123.289862,51.2905405 L123.289862,50.5878378 L90.3612973,50.5878378 L90.3612973,44.877027 L104.415556,44.877027 L104.415556,38.7256757 L90.3612973,38.7256757 L90.3612973,33.0148649 L112.179401,33.0148649 L112.179401,32.3121622 Z M123.289862,61.0878378 L78.0437536,61.0878378 L78.0437536,61.7905405 L123.289862,61.7905405 L123.289862,61.0878378 Z M123.498645,22.5148649 L135.852022,22.5148649 L147.752805,37.7824324 L148.772668,37.7824324 L136.074951,21.8121622 L123.498645,21.8121622 L123.498645,22.5148649 Z M149.000324,37.7824324 L149.700436,37.7824324 L149.700436,22.5148649 L165.880673,22.5148649 L165.880673,21.8121622 L149.000324,21.8121622 L149.000324,37.7824324 Z M161.317868,61.0878378 L149.250818,61.0878378 L137.066683,45.7635135 L135.998718,45.7635135 L148.741562,61.7905405 L161.317868,61.7905405 L161.317868,61.0878378 Z M135.816188,45.7635135 L135.116076,45.7635135 L135.116076,61.0878378 L123.498645,61.0878378 L123.498645,61.7905405 L135.816188,61.7905405 L135.816188,45.7635135 Z M161.317868,33.8829438 L160.617756,33.8829438 L160.617756,60.7152301 L161.317868,60.7152301 L161.317868,33.8829438 Z M124.198757,22.8874726 L123.498645,22.8874726 L123.498645,51.2905405 L124.198757,51.2905405 L124.198757,22.8874726 Z M214.799804,42.0192196 L214.799803,42.0375794 C214.722716,46.2259309 213.798903,49.8154012 212.023533,52.7982924 C210.241639,55.7921458 207.664305,58.0464802 204.30389,59.5541623 C200.967198,61.0512008 196.997276,61.7972973 192.396779,61.7972973 C187.795601,61.7972973 183.834401,61.0462185 180.515914,59.5390298 C177.173998,58.0212005 174.634071,55.7752374 172.909096,52.8080526 C171.191727,49.8539526 170.297462,46.252078 170.220496,41.9879736 C170.297421,38.7907444 170.823009,35.9656297 171.800158,33.5141888 C172.782953,31.0485842 174.231208,28.9730081 176.142318,27.2933552 C178.047424,25.6189798 180.375317,24.3464022 183.121588,23.4747788 C185.855468,22.6070882 188.947422,22.1743243 192.396779,22.1743243 C196.979488,22.1743243 200.945751,22.9350813 204.292508,24.4612869 C207.660775,25.9973017 210.241696,28.2602684 212.023166,31.2436589 C213.798884,34.2174177 214.722722,37.8118264 214.799804,42.0192196 Z M215.5,42.0283784 C215.5,37.6301653 214.586489,33.9012426 212.764877,30.832953 C210.947754,27.7722261 208.315367,25.4573393 204.855359,23.8813742 C201.373245,22.2953399 197.221479,21.5 192.396779,21.5 C188.762019,21.5 185.516105,21.9517671 182.658198,22.8531939 C179.81412,23.7502587 177.42054,25.0641239 175.472669,26.7941132 C173.529156,28.520232 172.053454,30.6453602 171.043011,33.1753166 C170.028931,35.7143806 169.52024,38.6646552 169.52024,42.0283784 C169.52024,46.4665222 170.406566,50.2067881 172.173089,53.2568396 C173.933387,56.2961456 176.521884,58.5903414 179.951723,60.1467115 C183.405441,61.7139176 187.552799,62.5 192.396779,62.5 C197.241387,62.5 201.398857,61.7184143 204.872098,60.1600309 C208.321188,58.612484 210.947807,56.3078205 212.764541,53.2385587 C214.586413,50.1606164 215.5,46.4267633 215.5,42.0283784 Z M183.007794,42.0851351 C183.007794,44.8723612 183.636195,47.2940223 184.890343,49.3601487 C186.089732,51.3360634 188.484438,52.3405405 192.141762,52.3405405 C195.006978,52.3405405 197.118084,51.8040706 198.48159,50.755654 C199.8605,49.695394 200.705454,48.5027638 201.035413,47.1722189 C201.386971,45.7545769 201.63799,44.0459801 201.786444,42.1112036 C201.639365,39.2940428 200.952949,36.8512589 199.729878,34.7761832 C198.570066,32.8084339 196.062835,31.8013514 192.141762,31.8013514 C186.008576,31.8013514 183.007794,35.1602766 183.007794,42.0851351 Z M183.849582,42.1702703 C183.849582,35.9473842 186.693974,32.7310811 192.255103,32.7310811 C195.758025,32.7310811 198.119888,33.6874401 199.273761,35.6447253 C200.365933,37.4973501 200.959351,39.6683466 201.056549,42.1979632 C200.960433,43.9306904 200.757826,45.4090715 200.446937,46.6350631 C200.115676,47.9413938 199.295197,49.1020855 198.003574,50.1127036 C196.694018,51.1373533 194.775082,51.6378378 192.255103,51.6378378 C188.940175,51.6378378 186.667213,50.6731642 185.506038,48.7106951 C184.400701,46.8425977 183.849582,44.6594032 183.849582,42.1702703 Z" id="RENo"></path>
                <path d="M28.1908346,74.5634445 L44.8249822,74.5634445 L54.2600952,105.755816 L54.8783443,105.755816 L45.408476,73.8758499 L28.1908346,73.8758499 L28.1908346,74.5634445 Z M55.2122027,105.755816 L55.9738664,105.755816 L65.2677352,74.5634445 L82.6414592,74.5634445 L82.6414592,73.8758499 L64.7975572,73.8758499 L55.2122027,105.755816 Z M83.6102977,84.9702772 L83.6102977,84.2826827 L75.8784845,84.2826827 L65.5676575,112.80303 L45.2851079,112.80303 L35.3415157,84.2826827 L29.7544462,84.2826827 L29.7544462,84.9702772 L34.2842669,84.9702772 L34.6355033,84.9702772 L44.9180815,113.490624 L65.8847509,113.490624 L76.365071,84.9702772 L76.7140265,84.9702772 L83.6102977,84.9702772 Z M81.4550411,112.80303 L81.4550411,113.490624 L96.8749569,113.490624 L99.4738503,106.177715 L112.270242,106.177715 L114.869135,113.490624 L134.979886,113.490624 L134.979886,112.80303 L115.293201,112.80303 L112.694308,105.49012 L99.0497842,105.49012 L96.4508908,112.80303 L81.4550411,112.80303 Z M116.241948,73.8758499 L96.3394813,73.8758499 L86.3393915,102.396197 L81.4550411,102.396197 L81.4550411,103.083792 L87.0427743,103.083792 L97.0428641,74.5634445 L115.558135,74.5634445 L124.767257,103.083792 L134.979886,103.083792 L134.979886,102.396197 L125.394572,102.396197 L116.241948,73.8758499 Z M106.165117,83.259226 L100.660818,97.9647549 L111.270914,97.9647549 L106.165117,83.259226 Z M110.018566,97.2771604 L101.857183,97.2771604 L106.246498,86.2830807 L110.018566,97.2771604 Z M148.016054,83.1576197 L148.016054,103.815083 L156.103701,103.815083 C157.95168,103.815083 159.419588,103.445292 160.516492,102.717187 C161.641441,101.970467 162.555035,101.016454 163.260843,99.8511293 C163.953376,98.7077218 164.423805,96.5749459 164.643498,93.5274326 C164.570092,90.6952318 164.156384,88.6220678 163.42236,87.3188703 C162.680278,86.0013668 161.734126,84.9796996 160.581269,84.2468305 C159.444746,83.524345 157.935968,83.1576197 156.047204,83.1576197 L148.016054,83.1576197 Z M135.19108,112.80303 L135.19108,113.490626 L158.091176,113.490725 C161.76701,113.564663 164.814365,113.196328 167.231077,112.391194 C169.646571,111.586466 171.68326,110.456325 173.345161,109.001637 C174.996187,107.556467 176.326767,105.57831 177.334618,103.060464 C178.348383,100.527845 178.959607,97.3927477 179.163235,93.6832371 C179.163235,89.8495935 178.605887,86.7217765 177.499395,84.2998502 C176.387193,81.865427 175.014185,79.9150796 173.382144,78.4444298 C171.751403,76.9749519 169.713853,75.8468683 167.264671,75.0614075 C164.802744,74.2718595 161.967755,73.8758499 158.759092,73.8758499 L130.779603,73.8758499 L130.779603,74.5634468 L158.747651,74.5635754 C162.083431,74.4872227 164.960232,74.8895727 167.377516,75.7752831 C169.792886,76.6602922 171.688587,77.7637513 173.061635,79.0917961 C174.417161,80.4028943 175.420429,81.692769 176.069087,82.9648972 C176.69907,84.2004038 177.215418,85.3619169 177.618016,86.449953 C178.038131,87.5853304 178.314998,89.9712895 178.468082,93.6981465 C178.353186,97.5495746 177.737547,100.662335 176.612263,103.038384 C175.494575,105.398394 174.273067,107.193769 172.940042,108.423432 C171.611989,109.648509 169.949227,110.655402 167.954699,111.445904 C165.947084,112.241593 162.667639,112.689018 158.08112,112.80303 L135.19108,112.80303 Z M148.740005,103.127488 L148.710211,83.8452142 L149.210984,83.8452142 L156.057158,83.8453133 C158.040472,83.8848079 159.551056,84.302319 160.581445,85.1209895 C161.572685,85.908556 162.340888,86.8684023 162.882212,87.9962698 C163.424468,89.1260797 163.773762,90.9471088 163.946933,93.5527478 C163.71531,96.5700346 163.363127,98.5010597 162.853712,99.411968 C162.358442,100.297582 161.632096,101.115549 160.6788,101.866975 C159.67655,102.656989 158.155525,103.068195 156.103701,103.127488 L148.740005,103.127488 Z M135.19108,103.083792 L135.88601,103.083792 L135.88601,84.2826827 L135.19108,84.2826827 L135.19108,103.083792 Z M182.985699,74.5634445 L221.503538,74.5634445 L221.503538,73.8758499 L182.985699,73.8758499 L182.985699,74.5634445 Z M189.733517,112.424855 L189.733517,84.2826827 L189.038587,84.2826827 L189.038587,112.424855 L189.733517,112.424855 Z M82.0485575,113.490268 L82.0485575,102.396767 L81.353627,102.396767 L81.353627,113.490268 L82.0485575,113.490268 Z M130.520515,83.8449291 L130.520515,73.8758499 L129.825585,73.8758499 L129.825585,83.8449291 L130.520515,83.8449291 Z M222.773596,83.8449291 L222.773596,73.8758499 L222.078666,73.8758499 L222.078666,83.8449291 L222.773596,83.8449291 Z M277.5,113.493437 L277.5,102.40803 L276.80507,102.40803 L276.80507,113.493437 L277.5,113.493437 Z M183.683308,83.8449291 L183.683308,75.4326939 L182.988377,75.4326939 L182.988377,83.8449291 L183.683308,83.8449291 Z M182.989903,84.9844398 L188.344223,84.9844398 L188.344223,84.2779812 L182.989903,84.2779812 L182.989903,84.9844398 Z M135.888558,83.1576682 L130.892933,83.1576682 L130.892933,83.8440322 L135.888558,83.8440322 L135.888558,83.1576682 Z M28.8857651,84.9723949 L28.8857651,75.4326939 L28.1908346,75.4326939 L28.1908346,84.9723949 L28.8857651,84.9723949 Z M83.612169,84.8927391 L83.612169,73.8758499 L82.9172385,73.8758499 L82.9172385,84.8927391 L83.612169,84.8927391 Z M222.780515,84.2826827 L200.620611,84.2826827 L200.620611,91.3268832 L214.632037,91.3268832 L214.632037,96.0958442 L200.620611,96.0958442 L200.620611,103.083792 L234.143749,103.083792 L234.143749,102.396197 L201.315542,102.396197 L201.315542,96.7271856 L215.326967,96.7271856 L215.326967,90.6392887 L201.315542,90.6392887 L201.315542,84.9702772 L222.780515,84.9702772 L222.780515,84.2826827 Z M234.143749,103.083792 L234.643749,103.083792 L234.143749,103.583792 L234.143749,103.083792 Z M224.76208,112.80303 L189.039879,112.80303 L189.039879,113.490624 L224.76208,113.490624 L224.76208,112.80303 Z M234.354943,74.5634827 L260.453928,74.5654802 C263.432286,74.8350681 265.856422,75.5911496 267.721344,76.8420799 C269.567923,78.0807071 270.810251,79.239432 271.448717,80.3392975 C272.077149,81.421879 272.501256,82.772166 272.726222,84.3888063 C272.954133,86.0266069 272.756646,87.7373045 272.13829,89.5159343 C271.514978,91.3088199 270.454393,92.8286629 268.962914,94.0678217 C267.513461,95.2720641 264.92873,96.2547298 261.191343,97.043625 L261.191343,98.820456 L264.685137,103.083792 L275.939677,103.083792 L275.939677,102.396197 L265.194187,102.396197 L261.509738,97.7086673 L262.270937,97.5282138 C265.370914,96.7933189 267.736775,95.7889843 269.368334,94.5254863 C270.984622,93.2738145 272.122319,91.6593892 272.787942,89.6711643 C273.459806,87.6642954 273.649065,85.8247634 273.362453,84.1482025 C273.070784,82.4420638 272.581709,81.0082448 271.898695,79.8449875 C271.227613,78.7020527 269.933407,77.4855375 268.013764,76.2113145 C266.112051,74.9489932 263.563265,74.1667466 260.408854,73.8758499 C254.802296,73.8758499 254.802296,73.8758499 251.234486,73.8758499 C244.583539,73.8758499 244.477493,73.8758499 234.354943,73.8758499 L234.354943,74.5634827 Z M248.394618,83.2982526 L248.394618,91.2143769 L259.335398,91.2143769 C259.825647,91.2143769 260.385758,91.0057459 261.014637,90.5716098 C261.553829,90.1993886 261.901679,89.1227983 261.972276,87.3901758 C261.849355,85.659253 261.459192,84.557167 260.858229,84.0738752 C260.204257,83.5479526 259.678801,83.2982526 259.307149,83.2982526 L248.394618,83.2982526 Z M249.146046,90.6674153 L249.146046,83.9295939 L258.346689,83.9295939 C258.841458,83.9295939 259.402205,84.1562387 260.05134,84.5906543 C260.775355,85.0751814 261.169177,85.9864384 261.275871,87.3413945 C261.233535,88.7745917 260.878413,89.7230967 260.129521,90.1401556 C259.504827,90.4880485 258.920716,90.6674153 258.374938,90.6674153 L249.146046,90.6674153 Z M224.973274,112.80303 L224.973274,113.490624 L248.100839,113.490624 L248.100839,99.3866535 L247.405908,99.3866535 L247.405908,112.80303 L224.973274,112.80303 Z M248.150206,99.3866535 L261.751251,113.490624 L275.938117,113.490624 L275.938117,112.80303 L262.314428,112.80303 L249.432957,99.3866535 L248.150206,99.3866535 Z M275.938117,113.490624 L276.438117,113.490624 L275.938117,113.990624 L275.938117,113.490624 Z M24.1949305,22.5 L23.5,22.5 L23.5,32.5596155 L24.1949305,32.5596155 L24.1949305,32.5547411 L28.9095606,32.5547411 L28.9095606,31.9237212 L24.1949305,31.9237212 L24.1949305,22.5 Z M165.78865,34.0259231 L166.483581,34.0259231 L166.483581,24.0568439 L165.78865,24.0568439 L165.78865,33.3386622 L161.230395,33.3386622 L161.230395,34.0250262 L165.78865,34.0250262 L165.78865,34.0259231 Z M236.049874,73.9416191 L236.049874,104.083792 L233.354943,104.083792 L233.354943,73.9416191 L236.049874,73.9416191 Z M113.320788,33.6036521 L113.320788,22.5 L112.625858,22.5 L112.625858,33.6036521 L113.320788,33.6036521 Z" id="VADER"></path>
                <rect id="Rectangle" x="11.5" y="11.5" width="278" height="113" rx="9"></rect>
                <rect id="Rectangle-Copy" x="0.5" y="0.5" width="299" height="135" rx="14"></rect>
            </g>
        </g>
    </g>
</svg>